# xmcd CD database file
#
# Track frame offsets:
#	150
#	25103
#	38194
#	53495
#	74907
#	98366
#	114206
#	134441
#	151360
#	188109
#	200713
#	215177
#	230729
#	243905
#	257097
#	268714
#	281582
#	306102
#	319418
#
# Disc length: 4577 seconds
#
# Revision: 0
# Processed by: cddbd v1.5.2PL0 Copyright (c) Steve Scherf et al.
# Submitted via: CDex 1.51
#
DISCID=1c11df13
DTITLE=Erroll Garner - The Classic Album Collection, disc 3
DYEAR=1900
DGENRE=Jazz
TTITLE0=Moonglow
TTITLE1=Sophisticated Lady
TTITLE2=Robbin's Nest
TTITLE3=Creme de Menthe
TTITLE4=Humoresque
TTITLE5=How Hogh The Moon
TTITLE6=Fancy
TTITLE7=Groovy-Day
TTITLE8=The Man I Love
TTITLE9=Misty
TTITLE10=Exactly Like You
TTITLE11=You Are My Sunshine
TTITLE12=What Is This Thing Called Love
TTITLE13=Frantonality
TTITLE14=Again
TTITLE15=Where Or When
TTITLE16=Love In Bloom
TTITLE17=Through A Long And Sleepless Night
TTITLE18=That Old Feeling
EXTD=
EXTT0=
EXTT1=
EXTT2=
EXTT3=
EXTT4=
EXTT5=
EXTT6=
EXTT7=
EXTT8=
EXTT9=
EXTT10=
EXTT11=
EXTT12=
EXTT13=
EXTT14=
EXTT15=
EXTT16=
EXTT17=
EXTT18=
PLAYORDER=
